<?xml version="1.0" encoding="utf-8"?><svg viewBox="0 0 24 24" xmlns="http://www.w3.org/2000/svg" xmlns:xlink="http://www.w3.org/1999/xlink"><style>:root>svg{display:none}:root>svg:target{display:block}</style><svg viewBox="0 0 12 7" id="arrow-down"><path d="M6 5.19L2.031 1.22a.747.747 0 00-1.06 0 .754.754 0 000 1.062l4.498 4.5c.284.285.74.29 1.034.022l4.528-4.519a.75.75 0 00.219-.53.747.747 0 00-1.278-.531L6 5.19z"/></svg><svg viewBox="0 0 24 24" id="facebook"><path d="M23.625 12C23.625 5.578 18.422.375 12 .375S.375 5.578.375 12c0 5.802 4.251 10.612 9.809 11.484V15.36H7.23V12h2.954V9.439c0-2.914 1.734-4.523 4.39-4.523 1.273 0 2.603.227 2.603.227v2.86H15.71c-1.444 0-1.895.896-1.895 1.815V12h3.225l-.516 3.36h-2.709v8.124c5.558-.872 9.809-5.682 9.809-11.484z"/></svg><svg viewBox="0 0 20 20" id="loop-minus"><path d="M9 17A8 8 0 109 1a8 8 0 000 16zM19 19l-4.35-4.35M6 9h6" stroke="#fff" stroke-width="2" stroke-linecap="round" stroke-linejoin="round"/></svg><svg viewBox="0 0 20 20" id="loop-plus"><path d="M9 17A8 8 0 109 1a8 8 0 000 16zM19 19l-4.35-4.35M9 6v6M6 9h6" stroke="#fff" stroke-width="2" stroke-linecap="round" stroke-linejoin="round"/></svg><svg viewBox="0 0 24 24" id="viber"><path d="M11.399.004c-1.927.023-6.067.34-8.383 2.464C1.293 4.175.69 6.7.62 9.82c-.059 3.11-.129 8.949 5.5 10.539v2.421s-.036.97.605 1.168c.789.25 1.238-.495 1.988-1.297l1.399-1.581c3.851.32 6.801-.418 7.14-.527.782-.25 5.184-.813 5.903-6.653.738-6.032-.359-9.832-2.34-11.55h-.012c-.598-.551-3-2.302-8.367-2.321 0 0-.398-.027-1.038-.016zm.066 1.696c.546-.004.879.019.879.019 4.542.012 6.71 1.38 7.222 1.84 1.668 1.43 2.527 4.855 1.898 9.89-.598 4.883-4.167 5.192-4.828 5.403-.281.09-2.88.73-6.152.52 0 0-2.438 2.941-3.2 3.699-.12.132-.262.171-.352.152-.129-.031-.168-.191-.16-.41l.023-4.02c-4.774-1.32-4.493-6.3-4.442-8.902.059-2.602.547-4.73 2-6.172C6.31 1.95 9.827 1.712 11.464 1.7h.002zm.36 2.6a.298.298 0 00-.301.298.3.3 0 00.3.3 5.635 5.635 0 014.032 1.59c1.09 1.058 1.62 2.48 1.64 4.34a.3.3 0 00.302.3v-.011a.3.3 0 00.3-.298 6.461 6.461 0 00-1.813-4.761c-1.187-1.16-2.691-1.758-4.46-1.758zm-3.954.688a.939.939 0 00-.613.121h-.016a4.707 4.707 0 00-1.145.941c-.273.317-.422.637-.46.945-.024.184-.008.368.046.543l.02.012c.308.906.711 1.778 1.203 2.598a15.283 15.283 0 002.32 3.172l.027.039.043.031.027.032.032.027a15.51 15.51 0 003.18 2.332c1.32.718 2.12 1.058 2.601 1.199v.008c.142.042.27.062.399.062a1.84 1.84 0 001.102-.473c.37-.33.684-.717.93-1.148v-.008c.23-.433.152-.843-.18-1.12a13.842 13.842 0 00-2.15-1.543c-.51-.278-1.03-.11-1.241.171l-.45.566c-.23.282-.648.243-.648.243l-.012.007c-3.121-.797-3.954-3.957-3.954-3.957s-.039-.43.25-.649l.563-.452c.269-.22.457-.738.168-1.25a13.494 13.494 0 00-1.54-2.15.855.855 0 00-.503-.3l.001.001zm4.473.891c-.399 0-.399.602.003.602a3.77 3.77 0 012.649 1.148 3.495 3.495 0 01.898 2.57.303.303 0 00.3.297l.013.016a.303.303 0 00.3-.3c.027-1.192-.343-2.192-1.07-2.993-.73-.801-1.75-1.25-3.05-1.34h-.043zm.492 1.617c-.41-.012-.426.602-.02.614.99.05 1.47.55 1.532 1.578a.299.299 0 00.297.293h.012a.302.302 0 00.289-.32c-.07-1.34-.801-2.094-2.098-2.164h-.012z"/></svg></svg>